# File created by Blade
# Date/Time:  Thu Jan 22 16:31:11 2015
# Frame Rate: 120.000 fps
#------------------------------------------------------
:FULLY-SPECIFIED
:DEGREES
639
root 26.560080 18.035122 -0.426688 1.199874 27.095058 -20.963800
RightUpLeg 16.821292 -5.601527 -36.273612
RightLeg 0.996552 -0.000000 -0.000000
RightFoot -19.148617 -16.447434 40.078336
RightToeBase 17.894576 -0.000000 -0.000000
LeftUpLeg -102.516955 28.174772 7.040623
LeftLeg 133.623647 -0.000000 -0.000000
LeftFoot -29.696665 -1.334133 -24.837507
LeftToeBase -16.493617 -0.000000 0.000000
Spine 32.101143 -0.249430 -52.670268
RightShoulder -14.337835 4.427747 -44.737602
RightArm 28.029281 68.491793 -16.176728
RightForeArm -2.165796 -0.000000 15.068283
RightHand 14.898689 -0.000000 -44.084384
RightHandThumb1 -24.326973 -0.000000 -32.862282
LeftShoulder -16.693930 41.428695 13.081453
LeftArm 89.328029 -44.491658 -126.079965
LeftForeArm -11.192181 0.000000 7.714823
LeftHand -27.776010 -0.000000 98.073958
LeftHandThumb1 -26.253704 0.000000 33.147579
Head 10.819798 11.467719 -48.757276
640
root 26.559253 18.032266 -0.423995 1.157185 27.097324 -20.998507
RightUpLeg 16.848260 -5.576085 -36.240547
RightLeg 0.996971 -0.000000 -0.000000
RightFoot -19.164006 -16.462790 40.045371
RightToeBase 17.922468 -0.000000 -0.000000
LeftUpLeg -102.507328 28.207438 7.083724
LeftLeg 133.645360 -0.000000 -0.000000
LeftFoot -29.670784 -1.372332 -24.816908
LeftToeBase -16.489191 -0.000000 0.000000
Spine 32.118738 -0.187834 -52.600252
RightShoulder -14.334460 4.420736 -44.721329
RightArm 28.071242 68.547842 -16.197425
RightForeArm -1.993838 0.000000 15.031495
RightHand 15.009538 -0.000000 -44.008369
RightHandThumb1 -24.326973 -0.000000 -32.862282
LeftShoulder -16.725303 41.460071 13.020678
LeftArm 89.357564 -44.401497 -126.050996
LeftForeArm -11.182810 -0.000000 7.773398
LeftHand -27.816324 -0.000000 98.119235
LeftHandThumb1 -26.253704 0.000000 33.147579
Head 10.778531 11.347921 -48.791340
641
root 26.559836 18.028371 -0.422540 1.129882 27.111027 -21.014065
RightUpLeg 16.868864 -5.567549 -36.230850
RightLeg 1.013708 -0.000000 -0.000000
RightFoot -19.183679 -16.452727 40.056018
RightToeBase 17.918227 -0.000000 -0.000000
LeftUpLeg -102.511801 28.222276 7.089411
LeftLeg 133.663239 -0.000000 -0.000000
LeftFoot -29.663376 -1.393396 -24.797664
LeftToeBase -16.463431 -0.000000 0.000000
Spine 32.142286 -0.144933 -52.555050
RightShoulder -14.346811 4.436226 -44.722355
RightArm 28.213588 68.551917 -16.102116
RightForeArm -2.081981 -0.000000 15.006462
RightHand 14.941867 -0.000000 -44.139706
RightHandThumb1 -24.326973 -0.000000 -32.862282
LeftShoulder -16.757529 41.479595 12.966665
LeftArm 89.385613 -44.324707 -126.069299
LeftForeArm -11.131661 0.000000 7.881698
LeftHand -27.868547 -0.000000 98.198536
LeftHandThumb1 -26.253704 0.000000 33.147579
Head 10.710824 11.234873 -48.830942
642
root 26.559781 18.024153 -0.420113 1.077095 27.122454 -21.053064
RightUpLeg 16.904775 -5.537411 -36.194532
RightLeg 1.021289 -0.000000 -0.000000
RightFoot -19.206060 -16.468108 40.036846
RightToeBase 17.926175 -0.000000 -0.000000
LeftUpLeg -102.499403 28.234477 7.135949
LeftLeg 133.689645 -0.000000 -0.000000
LeftFoot -29.640626 -1.423644 -24.778771
LeftToeBase -16.477120 -0.000000 0.000000
Spine 32.190604 -0.094305 -52.485781
RightShoulder -14.371639 4.415888 -44.696553
RightArm 28.269834 68.591256 -16.122536
RightForeArm -2.092380 -0.000000 14.975308
RightHand 14.936565 -0.000000 -44.226319
RightHandThumb1 -24.326973 -0.000000 -32.862282
LeftShoulder -16.802693 41.463859 12.906750
LeftArm 89.395467 -44.250818 -126.082859
LeftForeArm -11.098509 -0.000000 7.981050
LeftHand -27.829164 -0.000000 98.240904
LeftHandThumb1 -26.253704 0.000000 33.147579
Head 10.617407 11.020994 -48.947971
643
root 26.561604 18.020180 -0.419500 1.059623 27.125676 -21.060287
RightUpLeg 16.912052 -5.520199 -36.190542
RightLeg 1.038190 -0.000000 -0.000000
RightFoot -19.222416 -16.472627 40.027284
RightToeBase 17.923103 -0.000000 -0.000000
LeftUpLeg -102.506081 28.249499 7.127074
LeftLeg 133.709306 -0.000000 -0.000000
LeftFoot -29.642786 -1.420481 -24.753185
LeftToeBase -16.464054 -0.000000 0.000000
Spine 32.209018 -0.063587 -52.456147
RightShoulder -14.403146 4.366188 -44.684407
RightArm 28.433924 68.688436 -15.998575
RightForeArm -2.022959 -0.000000 14.987239
RightHand 14.886586 -0.000000 -44.284208
RightHandThumb1 -24.326973 -0.000000 -32.862282
LeftShoulder -16.837262 41.454607 12.861272
LeftArm 89.404323 -44.198809 -126.133604
LeftForeArm -11.045371 -0.000000 8.115183
LeftHand -27.833099 -0.000000 98.298352
LeftHandThumb1 -26.253704 0.000000 33.147579
Head 10.544780 10.824765 -49.046930
644
root 26.562138 18.014280 -0.417753 1.023268 27.134983 -21.087484
RightUpLeg 16.931868 -5.503258 -36.169646
RightLeg 1.060558 -0.000000 -0.000000
RightFoot -19.252976 -16.485544 39.985413
RightToeBase 17.941897 -0.000000 -0.000000
LeftUpLeg -102.509690 28.262582 7.156773
LeftLeg 133.737233 -0.000000 -0.000000
LeftFoot -29.615168 -1.445946 -24.738640
LeftToeBase -16.499165 -0.000000 0.000000
Spine 32.244975 -0.003027 -52.392664
RightShoulder -14.389926 4.412374 -44.675626
RightArm 28.332052 68.637229 -16.154698
RightForeArm -1.986435 -0.000000 15.014731
RightHand 14.827691 -0.000000 -44.288792
RightHandThumb1 -24.326973 -0.000000 -32.862282
LeftShoulder -16.871921 41.447112 12.822459
LeftArm 89.427801 -44.107161 -126.173164
LeftForeArm -10.999748 -0.000000 8.209065
LeftHand -27.818365 -0.000000 98.373499
LeftHandThumb1 -26.253704 0.000000 33.147579
Head 10.481668 10.607650 -49.119251
645
root 26.564029 18.008907 -0.417439 1.005232 27.138411 -21.096792
RightUpLeg 16.937682 -5.438260 -36.149545
RightLeg 1.084451 -0.000000 -0.000000
RightFoot -19.311106 -16.522905 39.985613
RightToeBase 17.932246 -0.000000 -0.000000
LeftUpLeg -102.523132 28.276980 7.151614
LeftLeg 133.761967 -0.000000 -0.000000
LeftFoot -29.604329 -1.461461 -24.727373
LeftToeBase -16.498563 -0.000000 0.000000
Spine 32.276245 0.047494 -52.362098
RightShoulder -14.388935 4.443298 -44.672406
RightArm 28.320445 68.662246 -16.156925
RightForeArm -2.023689 -0.000000 15.096794
RightHand 14.815909 -0.000000 -44.235629
RightHandThumb1 -24.326973 -0.000000 -32.862282
LeftShoulder -16.918371 41.437190 12.796386
LeftArm 89.464964 -44.016809 -126.280243
LeftForeArm -10.883222 -0.000000 8.346750
LeftHand -27.818265 -0.000000 98.433792
LeftHandThumb1 -26.253704 0.000000 33.147579
Head 10.444683 10.323755 -49.142884
646
root 26.567732 18.002194 -0.416818 0.969544 27.154699 -21.110423
RightUpLeg 16.959548 -5.393565 -36.135161
RightLeg 1.118653 -0.000000 -0.000000
RightFoot -19.358310 -16.557575 39.970018
RightToeBase 17.932624 -0.000000 -0.000000
LeftUpLeg -102.520346 28.269223 7.166969
LeftLeg 133.794919 -0.000000 -0.000000
LeftFoot -29.589590 -1.480356 -24.717800
LeftToeBase -16.548512 -0.000000 0.000000
Spine 32.338606 0.086903 -52.314007
RightShoulder -14.435345 4.430388 -44.703341
RightArm 28.409631 68.748946 -16.028156
RightForeArm -2.048584 -0.000000 15.212784
RightHand 14.822390 -0.000000 -44.100697
RightHandThumb1 -24.326973 -0.000000 -32.862282
LeftShoulder -16.973299 41.425714 12.739816
LeftArm 89.444610 -43.935549 -126.279673
LeftForeArm -10.822179 -0.000000 8.457132
LeftHand -27.899888 -0.000000 98.497749
LeftHandThumb1 -26.253704 0.000000 33.147579
Head 10.345188 10.117176 -49.222997
